<svg width="16" height="16" xmlns="http://www.w3.org/2000/svg" class="bi bi-house" fill="currentColor">

 <g>
  <title>Layer 1</title>
  <path fill="#ffffff" id="svg_1" d="m2,13.5l0,-6.5l1,0l0,6.5a0.5,0.5 0 0 0 0.5,0.5l9,0a0.5,0.5 0 0 0 0.5,-0.5l0,-6.5l1,0l0,6.5a1.5,1.5 0 0 1 -1.5,1.5l-9,0a1.5,1.5 0 0 1 -1.5,-1.5zm11,-11l0,3.5l-2,-2l0,-1.5a0.5,0.5 0 0 1 0.5,-0.5l1,0a0.5,0.5 0 0 1 0.5,0.5z" fill-rule="evenodd"/>
  <path fill="#ffffff" id="svg_2" d="m7.293,1.5a1,1 0 0 1 1.414,0l6.647,6.646a0.5,0.5 0 0 1 -0.708,0.708l-6.646,-6.647l-6.646,6.647a0.5,0.5 0 1 1 -0.708,-0.708l6.647,-6.646z" fill-rule="evenodd"/>
 </g>
</svg>