<svg width="16" height="16" xmlns="http://www.w3.org/2000/svg" class="bi bi-calendar-week" fill="currentColor">

 <g>
  <title>Layer 1</title>
  <path fill="#ffffff" id="svg_1" d="m11,6.5a0.5,0.5 0 0 1 0.5,-0.5l1,0a0.5,0.5 0 0 1 0.5,0.5l0,1a0.5,0.5 0 0 1 -0.5,0.5l-1,0a0.5,0.5 0 0 1 -0.5,-0.5l0,-1zm-3,0a0.5,0.5 0 0 1 0.5,-0.5l1,0a0.5,0.5 0 0 1 0.5,0.5l0,1a0.5,0.5 0 0 1 -0.5,0.5l-1,0a0.5,0.5 0 0 1 -0.5,-0.5l0,-1zm-5,3a0.5,0.5 0 0 1 0.5,-0.5l1,0a0.5,0.5 0 0 1 0.5,0.5l0,1a0.5,0.5 0 0 1 -0.5,0.5l-1,0a0.5,0.5 0 0 1 -0.5,-0.5l0,-1zm3,0a0.5,0.5 0 0 1 0.5,-0.5l1,0a0.5,0.5 0 0 1 0.5,0.5l0,1a0.5,0.5 0 0 1 -0.5,0.5l-1,0a0.5,0.5 0 0 1 -0.5,-0.5l0,-1z"/>
  <path fill="#ffffff" id="svg_2" d="m3.5,0a0.5,0.5 0 0 1 0.5,0.5l0,0.5l8,0l0,-0.5a0.5,0.5 0 0 1 1,0l0,0.5l1,0a2,2 0 0 1 2,2l0,11a2,2 0 0 1 -2,2l-12,0a2,2 0 0 1 -2,-2l0,-11a2,2 0 0 1 2,-2l1,0l0,-0.5a0.5,0.5 0 0 1 0.5,-0.5zm-2.5,4l0,10a1,1 0 0 0 1,1l12,0a1,1 0 0 0 1,-1l0,-10l-14,0z"/>
 </g>
</svg>